<svg title="Wies en de liefde" aria-hidden="true" width="1237px" height="333px" viewbox="0 0 1237 333" version="1.1" xmlns="http://www.w3.org/2000/svg" xmlns:xlink="http://www.w3.org/1999/xlink">
  <g stroke="none" stroke-width="1" fill="none" fill-rule="evenodd">
    <path d="M71.496,119.264 L71.496,117.728 L74.376,114.464 L79.56,86.624 L82.824,76.64 L81.096,75.296 L84.36,57.248 L89.544,42.08 L87.624,30.752 L91.08,20.768 L95.688,20.768 L95.688,12.896 L92.808,12.896 L86.28,16.16 L77.832,14.624 L77.832,17.504 L82.824,24.032 L79.56,27.488 L77.832,27.488 L77.832,45.536 L74.376,48.8 L74.376,53.984 L76.296,55.52 L73.032,58.784 L69.576,66.656 L68.232,65.312 L66.312,59.936 L68.232,58.784 L58.44,37.28 L59.784,36.128 L58.44,34.016 L56.328,36.128 L55.176,36.128 L56.328,37.28 L58.44,44 L51.72,50.72 L48.456,50.72 L45.192,38.816 L43.656,38.816 L43.656,42.08 L36.936,50.72 L36.936,53.984 L33.672,66.656 L31.944,66.656 L30.408,65.312 L29.064,53.984 L23.688,45.536 L25.8,44 L25.8,40.736 L23.688,38.816 L20.424,20.768 L30.408,17.504 L30.408,16.16 L29.064,14.624 L17.16,11.36 L15.816,12.896 L5.832,11.36 L2.568,12.896 L2.568,17.504 L5.832,20.768 L12.552,20.768 L15.816,32.672 L19.08,47.264 L17.16,65.312 L20.424,68.768 L22.536,89.888 L25.8,93.152 L23.688,99.872 L25.8,107.936 L23.688,109.28 L29.064,115.808 L35.208,117.728 L43.656,112.544 L45.192,97.952 L43.656,93.152 L46.92,62.048 L50.376,57.248 L51.72,58.784 L55.176,65.312 L53.064,75.296 L56.328,79.904 L55.176,81.44 L55.176,83.168 L58.44,89.888 L56.328,109.28 L61.704,117.728 L71.496,119.264 Z M48.456,34.016 L50.376,32.672 L56.328,22.88 L64.968,19.424 L64.968,16.16 L63.048,14.624 L51.72,12.896 L48.456,14.624 L45.192,32.672 L46.92,34.016 L48.456,34.016 Z M55.944,22.88 L53.064,22.88 L53.064,20.384 L55.944,20.384 L55.944,22.88 Z M52.68,81.44 L52.68,78.944 L50.376,78.944 L50.376,81.44 L52.68,81.44 Z M200.69113,121.376 L207.41113,118.112 L210.09913,109.664 L208.75513,108.128 L205.49113,102.944 L184.17913,102.944 L180.72313,100.256 L176.11513,73.568 L177.45913,32.864 L176.11513,24.416 L177.45913,23.072 L182.64313,23.072 L184.17913,24.416 L185.90713,23.072 L188.97913,23.072 L194.16313,24.416 L205.49113,17.696 L205.49113,11.744 L203.95513,9.824 L188.97913,8.48 L172.85113,9.824 L167.47513,8.48 L161.52313,11.744 L159.60313,9.824 L154.80313,9.824 L148.27513,8.48 L133.68313,13.28 L131.57113,17.696 L136.94713,23.072 L149.61913,26.336 L159.60313,24.416 L162.86713,26.336 L162.86713,32.864 L161.52313,42.464 L162.86713,47.648 L161.52313,62.24 L162.86713,63.584 L159.60313,102.944 L158.06713,101.408 L156.33913,102.944 L151.53913,102.944 L134.83513,106.208 L130.41913,111.392 L131.57113,116.192 L138.29113,119.456 L148.27513,121.376 L153.07513,119.456 L166.32313,121.376 L172.85113,119.456 L182.64313,121.376 L198.96313,119.456 L200.69113,121.376 Z M331.998261,47.072 L333.918261,45.728 L331.998261,37.088 L333.918261,35.744 L328.734261,13.088 L327.390261,13.088 L319.326261,9.824 L310.686261,14.432 L312.606261,15.968 L314.142261,14.432 L324.126261,25.952 L325.278261,37.088 L331.998261,47.072 Z M312.606261,117.536 L315.870261,114.272 L322.590261,114.272 L328.734261,116.192 L330.654261,114.272 L333.918261,94.88 L331.998261,91.616 L335.262261,78.368 L331.998261,75.104 L328.734261,75.104 L327.390261,76.832 L320.670261,96.224 L310.686261,106.208 L299.358261,104.288 L296.094261,106.208 L281.502261,104.288 L278.238261,101.024 L278.238261,92.96 L274.782261,88.352 L276.702261,65.12 L279.966261,61.856 L294.750261,61.856 L298.014261,65.12 L301.470261,70.304 L299.358261,75.104 L302.622261,81.632 L304.158261,81.632 L309.342261,76.832 L307.422261,63.584 L310.686261,53.792 L309.342261,40.352 L302.622261,39.2 L301.470261,40.352 L299.358261,47.072 L289.374261,57.056 L282.846261,55.712 L278.238261,50.336 L276.702261,42.464 L278.238261,40.352 L276.702261,21.152 L279.966261,17.696 L304.158261,14.432 L304.158261,11.168 L302.622261,9.824 L291.486261,11.168 L286.110261,9.824 L279.966261,13.088 L278.238261,11.168 L248.862261,9.824 L245.598261,17.696 L246.942261,19.232 L258.846261,21.152 L266.718261,19.232 L269.982261,22.496 L271.518261,73.568 L269.982261,86.24 L271.518261,89.696 L269.982261,96.224 L263.454261,102.944 L245.598261,106.208 L243.678261,112.928 L248.862261,117.536 L255.582261,116.192 L260.190261,117.536 L261.534261,116.192 L271.518261,117.536 L286.110261,116.192 L294.750261,117.536 L304.158261,116.192 L312.606261,117.536 Z M412.233391,120.8 L413.577391,119.456 L416.841391,119.456 L434.889391,116.192 L441.417391,107.744 L447.945391,92.96 L444.681391,72.032 L430.089391,57.248 L408.969391,52.448 L400.521391,53.984 L398.985391,52.448 L398.985391,50.72 L393.993391,50.72 L387.657391,45.92 L384.393391,32.864 L387.657391,28.064 L385.929391,20 L387.657391,18.272 L389.193391,18.272 L393.993391,22.88 L398.985391,22.88 L402.441391,16.736 L412.233391,16.736 L424.905391,22.88 L433.353391,31.328 L434.889391,36.128 L441.417391,42.656 L442.953391,41.312 L439.689391,21.536 L442.953391,18.272 L442.953391,13.472 L441.417391,11.552 L438.153391,11.552 L436.233391,13.472 L436.233391,20 L433.353391,22.88 L428.169391,18.272 L428.169391,16.736 L403.785391,8.288 L393.993391,13.472 L385.929391,14.816 L385.929391,18.272 L379.209391,22.88 L375.945391,31.328 L377.865391,42.656 L385.929391,52.448 L393.993391,57.248 L393.993391,60.512 L397.257391,60.512 L397.257391,59.168 L400.521391,55.712 L403.785391,62.432 L421.641391,63.776 L436.233391,70.496 L438.153391,75.296 L434.889391,91.616 L430.089391,96.416 L424.905391,102.944 L412.233391,106.208 L400.521391,102.944 L389.193391,91.616 L387.657391,81.824 L384.393391,78.56 L377.865391,77.024 L375.945391,78.56 L375.945391,80.288 L377.865391,94.88 L374.409391,111.008 L375.945391,116.192 L384.393391,117.536 L389.193391,112.928 L393.993391,112.928 L400.521391,117.536 L407.049391,117.536 L412.233391,120.8 Z" class="wies" fill="currentColor" fill-rule="nonzero"></path>
    <path d="M537.02,122.97 L549.575,119.595 L557.675,112.71 L559.97,108.12 L558.89,104.745 L555.245,104.745 L543.905,115.005 L542.555,113.655 L537.965,115.005 L528.92,111.36 L522.035,105.825 L519.605,97.725 L520.685,96.51 L530,95.43 L537.02,96.51 L537.02,97.725 L539.315,95.43 L544.985,94.08 L548.225,96.51 L554.3,94.08 L559.97,95.43 L561.185,91.785 L559.97,90.705 L561.185,89.76 L561.185,85.17 L557.675,78.15 L548.225,67.89 L530,66.54 L526.625,67.89 L522.98,71.265 L517.31,74.775 L514.07,81.39 L510.29,91.785 L511.775,93.135 L514.07,105.825 L518.39,110.415 L518.39,112.71 L526.625,120.675 L533.24,120.675 L537.02,122.97 Z M537.02,88.41 L540.26,82.875 L540.26,81.39 L537.02,78.15 L532.295,81.39 L531.35,81.39 L530,80.58 L530,76.8 L531.35,75.855 L530,74.775 L531.35,73.56 L537.965,74.775 L541.61,74.775 L544.985,78.15 L544.985,87.465 L537.02,88.41 Z M527.705,89.76 L525.41,85.17 L531.35,85.17 L531.35,87.465 L527.705,89.76 Z M608.833,112.796 L600.365,113.655 L597.125,110.415 L597.125,108.93 L598.07,105.825 L597.125,97.725 L600.365,89.76 L609.68,77.07 L616.7,73.56 L624.8,78.15 L627.095,98.805 L626.015,100.02 L626.015,104.745 L627.095,111.36 L626.015,112.71 L624.8,112.71 L613.055,115.005 L613.055,118.38 L615.485,120.675 L620.075,120.675 L629.39,119.595 L636.41,120.675 L640.19,117.165 L632.63,112.71 L634.115,86.115 L632.63,72.48 L624.8,64.11 L615.485,63.165 L601.85,70.185 L598.07,66.54 L597.125,66.54 L592.535,62.22 L587.81,65.46 L579.845,63.165 L576.605,65.46 L576.605,68.835 L578.9,72.48 L587.81,78.15 L587.81,81.39 L589.16,98.805 L587.81,108.93 L585.515,111.36 L578.9,112.71 L575.12,115.95 L574.175,119.595 L575.12,119.595 L577.415,121.89 L585.515,120.675 L591.455,121.89 L596.18,120.675 L597.125,121.89 L600.365,120.675 L604.145,121.89 L606.44,119.595 L606.44,118.38 L608.833,112.796 Z" class="en" fill="currentColor" fill-rule="nonzero"></path>
    <path d="M715.18,122.835 L717.475,119.595 L723.415,117.3 L731.38,121.89 L732.46,120.81 L733.675,120.81 L739.345,121.89 L741.775,119.595 L745.15,119.595 L747.445,117.3 L747.445,113.925 L746.365,112.575 L740.425,111.495 L734.755,107.85 L732.46,97.59 L733.675,96.645 L731.38,87.33 L732.46,83.955 L731.38,82.605 L732.46,78.015 L731.38,76.935 L732.46,71.4 L731.38,67.62 L732.46,57.36 L731.38,52.77 L732.46,48.045 L730.03,44.67 L724.495,43.725 L723.415,44.67 L712.885,43.725 L710.455,44.67 L709.51,49.395 L710.455,50.34 L721.12,52.77 L722.2,51.69 L724.495,53.985 L725.44,62.085 L727.735,65.325 L724.495,69.915 L722.2,69.915 L716.53,66.675 L710.455,65.325 L702.49,66.675 L693.58,73.695 L689.935,82.605 L687.64,95.16 L689.935,106.905 L693.58,110.28 L693.58,113.925 L696.955,117.3 L701.545,120.81 L709.51,122.835 L710.455,121.89 L715.18,122.835 Z M708.43,111.495 L703.84,106.905 L699.25,101.235 L696.955,96.645 L696.955,92.865 L697.765,91.92 L696.955,89.625 L696.955,85.035 L702.49,76.935 L708.43,73.695 L715.18,74.64 L718.825,78.015 L721.12,78.015 L723.415,81.66 L722.2,85.035 L724.495,95.16 L721.12,102.18 L721.12,104.61 L718.825,104.61 L715.18,109.2 L708.43,111.495 Z M779.47,122.97 L792.025,119.595 L800.125,112.71 L802.42,108.12 L801.34,104.745 L797.695,104.745 L786.355,115.005 L785.005,113.655 L780.415,115.005 L771.37,111.36 L764.485,105.825 L762.055,97.725 L763.135,96.51 L772.45,95.43 L779.47,96.51 L779.47,97.725 L781.765,95.43 L787.435,94.08 L790.675,96.51 L796.75,94.08 L802.42,95.43 L803.635,91.785 L802.42,90.705 L803.635,89.76 L803.635,85.17 L800.125,78.15 L790.675,67.89 L772.45,66.54 L769.075,67.89 L765.43,71.265 L759.76,74.775 L756.52,81.39 L752.74,91.785 L754.225,93.135 L756.52,105.825 L760.84,110.415 L760.84,112.71 L769.075,120.675 L775.69,120.675 L779.47,122.97 Z M779.47,88.41 L782.71,82.875 L782.71,81.39 L779.47,78.15 L774.745,81.39 L773.8,81.39 L772.45,80.58 L772.45,76.8 L773.8,75.855 L772.45,74.775 L773.8,73.56 L780.415,74.775 L784.06,74.775 L787.435,78.15 L787.435,87.465 L779.47,88.41 Z M770.155,89.76 L767.86,85.17 L773.8,85.17 L773.8,87.465 L770.155,89.76 Z" class="de" fill="currentColor" fill-rule="nonzero"></path>
    <path d="M911.15,121.08 L915.875,115.14 L915.875,110.955 L914.525,108.525 L915.875,99.21 L914.525,84.36 L909.935,84.36 L906.56,88.95 L906.56,92.19 L907.505,95.97 L906.56,99.21 L907.505,105.015 L901.97,110.955 L882.26,111.9 L879.02,108.525 L879.02,105.015 L879.965,103.935 L879.02,96.915 L881.315,85.305 L877.67,66.945 L879.02,66.135 L877.67,55.335 L879.02,51.015 L883.61,51.015 L891.575,52.095 L897.38,49.8 L897.38,47.37 L896.3,46.425 L889.28,45.075 L877.67,46.425 L875.24,43.995 L871.055,43.995 L867.41,45.075 L859.31,43.995 L851.48,46.425 L849.995,45.075 L849.995,51.015 L851.48,49.8 L872,51.015 L875.24,54.39 L875.24,56.685 L872,59.115 L872,63.705 L873.35,71.67 L872,72.75 L869.705,111.9 L867.41,111.9 L849.995,112.845 L849.995,119.865 L860.39,121.08 L871.055,119.865 L874.43,121.08 L882.26,119.865 L888.2,121.08 L898.595,119.865 L899.675,121.08 L907.505,119.865 L911.15,121.08 Z M948.575,57.63 L952.76,55.335 L955.19,51.555 L954.11,46.02 L947.09,42.645 L941.555,46.02 L939.26,49.26 L940.07,55.335 L948.575,57.63 Z M941.555,123.105 L952.76,120.675 L956.405,121.755 L957.485,120.675 L958.7,121.755 L961.13,121.755 L962.075,120.675 L970.04,121.755 L974.765,120.675 L977.06,117.3 L976.115,111.36 L973.82,109.065 L969.095,109.065 L956.405,110.415 L954.11,108.12 L954.11,104.34 L952.76,95.43 L955.19,90.84 L954.11,68.97 L950.465,64.245 L947.09,64.245 L946.145,65.595 L926.435,63.165 L927.515,72.48 L932.24,72.48 L934.535,71.265 L935.48,72.48 L940.07,74.505 L943.85,71.265 L946.145,73.56 L944.795,82.875 L946.145,91.785 L943.85,103.53 L942.5,103.53 L943.85,104.34 L944.795,108.12 L942.5,110.415 L937.775,110.415 L936.83,109.065 L921.845,111.36 L920.495,116.085 L924.14,120.675 L927.515,120.675 L933.455,121.755 L934.535,120.675 L935.48,121.755 L941.555,123.105 Z M1011.92,122.97 L1024.475,119.595 L1032.575,112.71 L1034.87,108.12 L1033.79,104.745 L1030.145,104.745 L1018.805,115.005 L1017.455,113.655 L1012.865,115.005 L1003.82,111.36 L996.935,105.825 L994.505,97.725 L995.585,96.51 L1004.9,95.43 L1011.92,96.51 L1011.92,97.725 L1014.215,95.43 L1019.885,94.08 L1023.125,96.51 L1029.2,94.08 L1034.87,95.43 L1036.085,91.785 L1034.87,90.705 L1036.085,89.76 L1036.085,85.17 L1032.575,78.15 L1023.125,67.89 L1004.9,66.54 L1001.525,67.89 L997.88,71.265 L992.21,74.775 L988.97,81.39 L985.19,91.785 L986.675,93.135 L988.97,105.825 L993.29,110.415 L993.29,112.71 L1001.525,120.675 L1008.14,120.675 L1011.92,122.97 Z M1011.92,88.41 L1015.16,82.875 L1015.16,81.39 L1011.92,78.15 L1007.195,81.39 L1006.25,81.39 L1004.9,80.58 L1004.9,76.8 L1006.25,75.855 L1004.9,74.775 L1006.25,73.56 L1012.865,74.775 L1016.51,74.775 L1019.885,78.15 L1019.885,87.465 L1011.92,88.41 Z M1002.605,89.76 L1000.31,85.17 L1006.25,85.17 L1006.25,87.465 L1002.605,89.76 Z M1108.34,61.005 L1109.285,59.655 L1111.715,53.985 L1105.1,46.965 L1098.08,44.67 L1099.025,48.045 L1100.375,46.965 L1102.805,46.965 L1106.045,51.69 L1102.805,58.71 L1108.34,61.005 Z M1075.13,121.89 L1077.425,119.595 L1078.37,120.81 L1081.745,120.81 L1083.095,119.595 L1084.04,120.81 L1087.685,120.81 L1100.375,119.595 L1102.805,117.3 L1102.805,113.925 L1099.025,110.28 L1095.785,110.28 L1094.435,111.495 L1081.745,109.2 L1081.745,97.59 L1079.45,81.66 L1080.665,78.015 L1079.45,72.345 L1081.745,69.915 L1084.04,69.915 L1087.685,71.4 L1091.06,69.915 L1094.435,71.4 L1098.08,69.105 L1095.785,66.675 L1092.41,66.675 L1084.04,69.105 L1077.425,62.085 L1080.665,52.77 L1091.06,46.155 L1089.98,44.67 L1087.685,44.67 L1081.745,46.965 L1077.425,53.985 L1075.13,59.655 L1076.075,61.005 L1076.075,65.325 L1073.78,67.62 L1071.485,67.62 L1069.19,65.325 L1065.815,65.325 L1054.205,67.62 L1055.42,69.105 L1055.42,69.915 L1063.52,72.345 L1069.19,69.915 L1075.13,73.695 L1075.13,76.935 L1076.075,82.605 L1073.78,98.94 L1075.13,99.885 L1073.78,109.2 L1071.485,111.495 L1066.895,111.495 L1063.52,110.28 L1055.42,112.575 L1053.125,116.22 L1054.205,119.595 L1063.52,121.89 L1071.485,119.595 L1073.78,121.89 L1075.13,121.89 Z M1078.37,71.4 L1076.075,71.4 L1077.425,67.62 L1078.37,69.105 L1078.37,71.4 Z M1146.98,122.835 L1149.275,119.595 L1155.215,117.3 L1163.18,121.89 L1164.26,120.81 L1165.475,120.81 L1171.145,121.89 L1173.575,119.595 L1176.95,119.595 L1179.245,117.3 L1179.245,113.925 L1178.165,112.575 L1172.225,111.495 L1166.555,107.85 L1164.26,97.59 L1165.475,96.645 L1163.18,87.33 L1164.26,83.955 L1163.18,82.605 L1164.26,78.015 L1163.18,76.935 L1164.26,71.4 L1163.18,67.62 L1164.26,57.36 L1163.18,52.77 L1164.26,48.045 L1161.83,44.67 L1156.295,43.725 L1155.215,44.67 L1144.685,43.725 L1142.255,44.67 L1141.31,49.395 L1142.255,50.34 L1152.92,52.77 L1154,51.69 L1156.295,53.985 L1157.24,62.085 L1159.535,65.325 L1156.295,69.915 L1154,69.915 L1148.33,66.675 L1142.255,65.325 L1134.29,66.675 L1125.38,73.695 L1121.735,82.605 L1119.44,95.16 L1121.735,106.905 L1125.38,110.28 L1125.38,113.925 L1128.755,117.3 L1133.345,120.81 L1141.31,122.835 L1142.255,121.89 L1146.98,122.835 Z M1140.23,111.495 L1135.64,106.905 L1131.05,101.235 L1128.755,96.645 L1128.755,92.865 L1129.565,91.92 L1128.755,89.625 L1128.755,85.035 L1134.29,76.935 L1140.23,73.695 L1146.98,74.64 L1150.625,78.015 L1152.92,78.015 L1155.215,81.66 L1154,85.035 L1156.295,95.16 L1152.92,102.18 L1152.92,104.61 L1150.625,104.61 L1146.98,109.2 L1140.23,111.495 Z M1211.27,122.97 L1223.825,119.595 L1231.925,112.71 L1234.22,108.12 L1233.14,104.745 L1229.495,104.745 L1218.155,115.005 L1216.805,113.655 L1212.215,115.005 L1203.17,111.36 L1196.285,105.825 L1193.855,97.725 L1194.935,96.51 L1204.25,95.43 L1211.27,96.51 L1211.27,97.725 L1213.565,95.43 L1219.235,94.08 L1222.475,96.51 L1228.55,94.08 L1234.22,95.43 L1235.435,91.785 L1234.22,90.705 L1235.435,89.76 L1235.435,85.17 L1231.925,78.15 L1222.475,67.89 L1204.25,66.54 L1200.875,67.89 L1197.23,71.265 L1191.56,74.775 L1188.32,81.39 L1184.54,91.785 L1186.025,93.135 L1188.32,105.825 L1192.64,110.415 L1192.64,112.71 L1200.875,120.675 L1207.49,120.675 L1211.27,122.97 Z M1211.27,88.41 L1214.51,82.875 L1214.51,81.39 L1211.27,78.15 L1206.545,81.39 L1205.6,81.39 L1204.25,80.58 L1204.25,76.8 L1205.6,75.855 L1204.25,74.775 L1205.6,73.56 L1212.215,74.775 L1215.86,74.775 L1219.235,78.15 L1219.235,87.465 L1211.27,88.41 Z M1201.955,89.76 L1199.66,85.17 L1205.6,85.17 L1205.6,87.465 L1201.955,89.76 Z" class="Liefde" fill="currentColor" fill-rule="nonzero"></path>
  </g>

  <g stroke="none" stroke-width="1" fill="none" fill-rule="evenodd">
    <path d="M47.455,298.9 L55.645,295.39 L62.47,296.755 L67.15,293.44 L69.1,295.39 L73.975,295.39 L79.24,293.44 L79.24,288.76 L80.605,285.445 L79.24,283.495 L79.24,277.06 L80.605,273.745 L83.92,256.975 L79.24,252.295 L73.975,255.61 L73.975,260.29 L72.415,273.745 L73.975,275.305 L64.225,285.445 L50.77,286.81 L45.505,283.495 L44.14,285.445 L35.95,286.81 L27.37,285.445 L22.495,288.76 L20.935,286.81 L20.935,285.445 L25.81,271.795 L37.51,261.85 L40.825,253.66 L47.455,252.295 L47.455,247.03 L52.33,242.155 L54.085,242.155 L58.96,228.7 L65.785,225.19 L77.29,209.005 L75.925,207.055 L82.555,200.425 L82.555,192.235 L75.925,187.36 L42.775,185.41 L34.195,188.725 L32.635,187.36 L25.81,187.36 L17.62,192.235 L14.305,213.88 L15.865,227.14 L20.935,227.14 L27.37,207.055 L34.195,198.865 L39.265,198.865 L42.775,202.18 L57.595,200.425 L60.91,203.74 L60.91,209.005 L55.645,213.88 L52.33,215.635 L52.33,218.56 L54.085,220.51 L48.82,225.19 L39.265,242.155 L29.32,258.925 L24.055,270.43 L19.18,277.06 L9.04,288.76 L9.04,293.44 L12.355,296.755 L14.305,296.755 L22.495,293.44 L39.265,295.39 L47.455,298.9 Z M170.398333,300.85 L177.028333,295.975 L181.903333,295.975 L195.358333,281.155 L198.673333,266.335 L201.988333,261.07 L200.038333,246.055 L195.358333,235.915 L185.413333,223.045 L173.713333,214.465 L163.573333,214.465 L147.388333,217.78 L133.933333,229.675 L127.108333,241.375 L123.793333,272.965 L133.933333,285.835 L142.123333,292.66 L148.753333,297.535 L170.398333,300.85 Z M165.523333,284.47 L150.118333,282.52 L140.563333,267.7 L138.808333,259.51 L140.563333,257.56 L137.248333,248.005 L142.123333,234.55 L147.388333,231.235 L156.943333,229.675 L162.208333,226.36 L175.273333,232.6 L180.538333,238.06 L185.413333,252.685 L181.903333,269.65 L175.273333,281.155 L173.713333,282.52 L171.958333,282.52 L170.398333,281.155 L165.523333,284.47 Z M279.053,284.594 L266.821666,285.835 L262.141666,281.155 L262.141666,279.01 L263.506666,274.525 L262.141666,262.825 L266.821666,251.32 L280.276666,232.99 L290.416666,227.92 L302.116666,234.55 L305.431666,264.385 L303.871666,266.14 L303.871666,272.965 L305.431666,282.52 L303.871666,284.47 L302.116666,284.47 L285.151666,287.785 L285.151666,292.66 L288.661666,295.975 L295.291666,295.975 L308.746666,294.415 L318.886666,295.975 L324.346666,290.905 L313.426666,284.47 L315.571666,246.055 L313.426666,226.36 L302.116666,214.27 L288.661666,212.905 L268.966666,223.045 L263.506666,217.78 L262.141666,217.78 L255.511666,211.54 L248.686666,216.22 L237.181666,212.905 L232.501666,216.22 L232.501666,221.095 L235.816666,226.36 L248.686666,234.55 L248.686666,239.23 L250.636666,264.385 L248.686666,279.01 L245.371666,282.52 L235.816666,284.47 L230.356666,289.15 L228.991666,294.415 L230.356666,294.415 L233.671666,297.73 L245.371666,295.975 L253.951666,297.73 L260.776666,295.975 L262.141666,297.73 L266.821666,295.975 L272.281666,297.73 L275.596666,294.415 L275.596666,292.66 L279.053,284.594 Z M388.009999,299.095 L391.324999,294.415 L399.904999,291.1 L411.409999,297.73 L412.969999,296.17 L414.724999,296.17 L422.914999,297.73 L426.424999,294.415 L431.299999,294.415 L434.614999,291.1 L434.614999,286.225 L433.054999,284.275 L424.474999,282.715 L416.284999,277.45 L412.969999,262.63 L414.724999,261.265 L411.409999,247.81 L412.969999,242.935 L411.409999,240.985 L412.969999,234.355 L411.409999,232.795 L412.969999,224.8 L411.409999,219.34 L412.969999,204.52 L411.409999,197.89 L412.969999,191.065 L409.459999,186.19 L401.464999,184.825 L399.904999,186.19 L384.694999,184.825 L381.184999,186.19 L379.819999,193.015 L381.184999,194.38 L396.589999,197.89 L398.149999,196.33 L401.464999,199.645 L402.829999,211.345 L406.144999,216.025 L401.464999,222.655 L398.149999,222.655 L389.959999,217.975 L381.184999,216.025 L369.679999,217.975 L356.809999,228.115 L351.544999,240.985 L348.229999,259.12 L351.544999,276.085 L356.809999,280.96 L356.809999,286.225 L361.684999,291.1 L368.314999,296.17 L379.819999,299.095 L381.184999,297.73 L388.009999,299.095 Z M378.259999,282.715 L371.629999,276.085 L364.999999,267.895 L361.684999,261.265 L361.684999,255.805 L362.854999,254.44 L361.684999,251.125 L361.684999,244.495 L369.679999,232.795 L378.259999,228.115 L388.009999,229.48 L393.274999,234.355 L396.589999,234.355 L399.904999,239.62 L398.149999,244.495 L401.464999,259.12 L396.589999,269.26 L396.589999,272.77 L393.274999,272.77 L388.009999,279.4 L378.259999,282.715 Z M498.473332,299.29 L516.608332,294.415 L528.308332,284.47 L531.623332,277.84 L530.063332,272.965 L524.798332,272.965 L508.418332,287.785 L506.468332,285.835 L499.838332,287.785 L486.773332,282.52 L476.828332,274.525 L473.318332,262.825 L474.878332,261.07 L488.333332,259.51 L498.473332,261.07 L498.473332,262.825 L501.788332,259.51 L509.978332,257.56 L514.658332,261.07 L523.433332,257.56 L531.623332,259.51 L533.378332,254.245 L531.623332,252.685 L533.378332,251.32 L533.378332,244.69 L528.308332,234.55 L514.658332,219.73 L488.333332,217.78 L483.458332,219.73 L478.193332,224.605 L470.003332,229.675 L465.323332,239.23 L459.863332,254.245 L462.008332,256.195 L465.323332,274.525 L471.563332,281.155 L471.563332,284.47 L483.458332,295.975 L493.013332,295.975 L498.473332,299.29 Z M498.473332,249.37 L503.153332,241.375 L503.153332,239.23 L498.473332,234.55 L491.648332,239.23 L490.283332,239.23 L488.333332,238.06 L488.333332,232.6 L490.283332,231.235 L488.333332,229.675 L490.283332,227.92 L499.838332,229.675 L505.103332,229.675 L509.978332,234.55 L509.978332,248.005 L498.473332,249.37 Z M485.018332,251.32 L481.703332,244.69 L490.283332,244.69 L490.283332,248.005 L485.018332,251.32 Z M592.946665,299.095 L597.626665,295.78 L609.911665,297.73 L617.906665,295.78 L622.781665,297.73 L634.286665,295.78 L639.551665,291.1 L639.551665,286.225 L637.601665,284.275 L621.221665,280.96 L619.466665,282.91 L614.591665,277.645 L614.591665,267.895 L611.276665,264.58 L614.591665,247.81 L622.781665,239.62 L624.731665,234.355 L637.601665,224.8 L643.061665,224.8 L646.376665,228.115 L647.741665,236.305 L653.006665,241.18 L654.371665,241.18 L659.246665,237.67 L661.196665,224.8 L653.006665,214.66 L646.376665,214.66 L643.061665,216.025 L632.921665,218.17 L629.606665,221.485 L624.731665,221.485 L619.466665,229.48 L612.641665,237.67 L609.911665,232.795 L611.276665,222.85 L604.451665,216.025 L596.456665,214.66 L594.311665,216.025 L579.491665,214.66 L576.176665,221.485 L581.441665,228.115 L597.626665,226.165 L603.086665,231.04 L603.086665,237.67 L601.136665,241.18 L603.086665,251.125 L601.136665,252.49 L603.086665,254.635 L603.086665,255.805 L601.136665,261.265 L603.086665,262.63 L601.136665,272.77 L596.456665,282.91 L592.946665,282.91 L590.996665,280.96 L578.126665,282.91 L572.861665,286.225 L572.861665,289.54 L576.176665,295.78 L592.946665,299.095 Z M776.729998,240.205 L778.289998,234.745 L774.974998,221.485 L771.464998,221.485 L771.464998,230.065 L776.729998,240.205 Z M735.974998,249.76 L735.974998,247.42 L733.439998,247.42 L733.439998,249.76 L735.974998,249.76 Z M770.099,214.922 L770.099998,213.295 L766.589998,199.84 L758.594998,194.965 L750.014998,191.65 L745.139998,193.6 L730.124998,188.335 L723.494998,191.65 L721.544998,190.285 L718.229998,190.285 L703.409998,186.97 L690.344998,190.285 L690.344998,194.965 L691.709998,196.915 L713.549998,194.965 L716.864998,205.105 L718.229998,206.47 L718.229998,209.98 L715.304998,231.43 L716.864998,236.89 L715.304998,238.06 L716.864998,240.205 L715.304998,241.57 L713.549998,251.71 L716.864998,264.58 L715.304998,266.53 L713.549998,283.495 L710.039998,286.225 L690.344998,286.225 L687.029998,289.54 L687.029998,293.05 L690.344998,296.365 L695.219998,296.365 L705.359998,298.315 L723.494998,294.805 L728.369998,296.365 L750.014998,294.805 L766.589998,281.35 L773.414998,270.04 L778.289998,244.885 L776.729998,242.935 L774.974998,242.935 L773.414998,244.885 L770.099998,249.76 L771.464998,251.71 L771.464998,255.025 L766.589998,259.9 L764.834998,267.895 L753.329998,281.35 L745.139998,286.225 L721.544998,284.665 L721.544998,281.35 L720.179998,266.53 L721.544998,256.585 L720.179998,221.485 L721.544998,219.925 L721.544998,213.295 L720.179998,211.735 L721.544998,199.84 L726.809998,194.965 L736.949998,196.915 L743.189998,194.965 L756.644998,198.28 L770.099,214.922 Z M871.008331,300.85 L882.318331,299.29 L889.143331,291.1 L887.778331,276.28 L875.688331,277.84 L871.008331,272.965 L872.373331,271.015 L872.373331,264.385 L871.008331,260.875 L872.373331,249.37 L871.008331,227.92 L864.183331,219.535 L859.308331,217.78 L845.853331,214.27 L844.488331,216.22 L829.278331,214.27 L812.703331,219.535 L807.438331,224.41 L806.073331,239.23 L810.948331,251.32 L814.263331,251.32 L816.018331,252.685 L814.263331,254.635 L812.703331,254.635 L799.443331,266.14 L799.443331,272.965 L801.393331,287.785 L810.948331,297.73 L816.018331,297.73 L824.403331,299.29 L825.768331,297.73 L827.718331,299.29 L839.223331,299.29 L859.308331,292.66 L860.868331,294.415 L871.008331,300.85 Z M825.768331,249.37 L817.578331,249.37 L827.718331,242.545 L827.718331,241.375 L829.278331,239.23 L824.403331,231.235 L824.403331,229.675 L834.348331,226.36 L852.678331,231.235 L857.553331,234.55 L857.553331,237.865 L859.308331,239.23 L849.168331,242.545 L844.488331,242.545 L841.173331,246.055 L825.768331,249.37 Z M837.858331,282.52 L819.528331,282.52 L816.018331,277.84 L817.578331,271.015 L816.018331,269.65 L824.403331,264.385 L834.348331,264.385 L835.908331,262.825 L837.858331,264.385 L850.728331,260.875 L854.043331,260.875 L852.678331,266.14 L855.993331,271.015 L849.168331,279.01 L837.858331,282.52 Z M959.826664,332.635 L968.016664,327.37 L969.966664,329.32 L973.281664,329.32 L976.011664,326.005 L991.416664,321.13 L999.606664,305.725 L997.851664,304.36 L994.731664,290.905 L991.416664,284.275 L982.836664,279.4 L968.016664,279.4 L964.701664,276.085 L949.686664,277.84 L946.371664,276.085 L934.866664,280.765 L928.236664,277.84 L923.361664,272.575 L929.991664,265.945 L936.231664,264.58 L949.686664,269.26 L961.386664,267.895 L966.651664,262.435 L969.966664,262.435 L978.156664,251.125 L978.156664,239.425 L974.841664,232.795 L979.521664,225.97 L981.471664,228.115 L982.836664,228.115 L988.101664,237.67 L991.416664,237.67 L996.291664,232.795 L997.851664,228.115 L988.101664,216.025 L979.521664,217.975 L973.281664,225.97 L963.141664,217.975 L943.056664,216.025 L924.726664,234.745 L924.726664,251.125 L928.236664,257.755 L926.676664,259.12 L921.411664,261.265 L920.046664,259.12 L913.221664,265.945 L913.221664,272.575 L914.781664,284.275 L909.906664,302.41 L911.271664,314.305 L916.536664,321.13 L946.371664,330.88 L954.561664,329.32 L959.826664,332.635 Z M953.001664,259.12 L939.546664,257.755 L938.376664,256.39 L939.546664,247.81 L936.231664,239.425 L938.376664,229.48 L945.006664,224.8 L953.001664,225.97 L957.876664,225.97 L968.016664,232.795 L969.966664,244.3 L969.966664,251.125 L961.386664,257.755 L953.001664,259.12 Z M949.686664,315.865 L929.991664,309.04 L929.991664,304.36 L928.236664,302.41 L926.676664,302.41 L926.676664,297.73 L941.691664,290.905 L945.006664,294.415 L951.636664,290.905 L957.876664,290.905 L961.386664,294.415 L969.966664,292.855 L979.521664,297.73 L981.471664,299.485 L981.471664,305.725 L974.841664,312.55 L964.701664,314.305 L963.141664,312.55 L949.686664,315.865 Z M1066.39,299.29 L1084.525,294.415 L1096.225,284.47 L1099.54,277.84 L1097.98,272.965 L1092.715,272.965 L1076.335,287.785 L1074.385,285.835 L1067.755,287.785 L1054.69,282.52 L1044.745,274.525 L1041.235,262.825 L1042.795,261.07 L1056.25,259.51 L1066.39,261.07 L1066.39,262.825 L1069.705,259.51 L1077.895,257.56 L1082.575,261.07 L1091.35,257.56 L1099.54,259.51 L1101.295,254.245 L1099.54,252.685 L1101.295,251.32 L1101.295,244.69 L1096.225,234.55 L1082.575,219.73 L1056.25,217.78 L1051.375,219.73 L1046.11,224.605 L1037.92,229.675 L1033.24,239.23 L1027.78,254.245 L1029.925,256.195 L1033.24,274.525 L1039.48,281.155 L1039.48,284.47 L1051.375,295.975 L1060.93,295.975 L1066.39,299.29 Z M1066.39,249.37 L1071.07,241.375 L1071.07,239.23 L1066.39,234.55 L1059.565,239.23 L1058.2,239.23 L1056.25,238.06 L1056.25,232.6 L1058.2,231.235 L1056.25,229.675 L1058.2,227.92 L1067.755,229.675 L1073.02,229.675 L1077.895,234.55 L1077.895,248.005 L1066.39,249.37 Z M1052.935,251.32 L1049.62,244.69 L1058.2,244.69 L1058.2,248.005 L1052.935,251.32 Z M1187.72,284.594 L1175.48833,285.835 L1170.80833,281.155 L1170.80833,279.01 L1172.17333,274.525 L1170.80833,262.825 L1175.48833,251.32 L1188.94333,232.99 L1199.08333,227.92 L1210.78333,234.55 L1214.09833,264.385 L1212.53833,266.14 L1212.53833,272.965 L1214.09833,282.52 L1212.53833,284.47 L1210.78333,284.47 L1193.81833,287.785 L1193.81833,292.66 L1197.32833,295.975 L1203.95833,295.975 L1217.41333,294.415 L1227.55333,295.975 L1233.01333,290.905 L1222.09333,284.47 L1224.23833,246.055 L1222.09333,226.36 L1210.78333,214.27 L1197.32833,212.905 L1177.63333,223.045 L1172.17333,217.78 L1170.80833,217.78 L1164.17833,211.54 L1157.35333,216.22 L1145.84833,212.905 L1141.16833,216.22 L1141.16833,221.095 L1144.48333,226.36 L1157.35333,234.55 L1157.35333,239.23 L1159.30333,264.385 L1157.35333,279.01 L1154.03833,282.52 L1144.48333,284.47 L1139.02333,289.15 L1137.65833,294.415 L1139.02333,294.415 L1142.33833,297.73 L1154.03833,295.975 L1162.61833,297.73 L1169.44333,295.975 L1170.80833,297.73 L1175.48833,295.975 L1180.94833,297.73 L1184.26333,294.415 L1184.26333,292.66 L1187.72,284.594 Z" class="ZonderDagen" fill="currentColor" fill-rule="nonzero"></path>
  </g>
</svg>
