<svg viewBox="0 0 1235 326">
  <title>Wies en de Liefde</title>
  <g id="Group" transform="translate(7.040000, 176.825000)" fill="#754e4e" fill-rule="nonzero">
      <path d="M38.415,114.075 L46.605,110.565 L53.43,111.93 L58.11,108.615 L60.06,110.565 L64.935,110.565 L70.2,108.615 L70.2,103.935 L71.565,100.62 L70.2,98.67 L70.2,92.235 L71.565,88.92 L74.88,72.15 L70.2,67.47 L64.935,70.785 L64.935,75.465 L63.375,88.92 L64.935,90.48 L55.185,100.62 L41.73,101.985 L36.465,98.67 L35.1,100.62 L26.91,101.985 L18.33,100.62 L13.455,103.935 L11.895,101.985 L11.895,100.62 L16.77,86.97 L28.47,77.025 L31.785,68.835 L38.415,67.47 L38.415,62.205 L43.29,57.33 L45.045,57.33 L49.92,43.875 L56.745,40.365 L68.25,24.18 L66.885,22.23 L73.515,15.6 L73.515,7.41 L66.885,2.535 L33.735,0.585 L25.155,3.9 L23.595,2.535 L16.77,2.535 L8.58,7.41 L5.265,29.055 L6.825,42.315 L11.895,42.315 L18.33,22.23 L25.155,14.04 L30.225,14.04 L33.735,17.355 L48.555,15.6 L51.87,18.915 L51.87,24.18 L46.605,29.055 L43.29,30.81 L43.29,33.735 L45.045,35.685 L39.78,40.365 L30.225,57.33 L20.28,74.1 L15.015,85.605 L10.14,92.235 L3.55271368e-14,103.935 L3.55271368e-14,108.615 L3.315,111.93 L5.265,111.93 L13.455,108.615 L30.225,110.565 L38.415,114.075 Z M161.358333,116.025 L167.988333,111.15 L172.863333,111.15 L186.318333,96.33 L189.633333,81.51 L192.948333,76.245 L190.998333,61.23 L186.318333,51.09 L176.373333,38.22 L164.673333,29.64 L154.533333,29.64 L138.348333,32.955 L124.893333,44.85 L118.068333,56.55 L114.753333,88.14 L124.893333,101.01 L133.083333,107.835 L139.713333,112.71 L161.358333,116.025 Z M156.483333,99.645 L141.078333,97.695 L131.523333,82.875 L129.768333,74.685 L131.523333,72.735 L128.208333,63.18 L133.083333,49.725 L138.348333,46.41 L147.903333,44.85 L153.168333,41.535 L166.233333,47.775 L171.498333,53.235 L176.373333,67.86 L172.863333,84.825 L166.233333,96.33 L164.673333,97.695 L162.918333,97.695 L161.358333,96.33 L156.483333,99.645 Z M270.013,99.769 L257.781666,101.01 L253.101666,96.33 L253.101666,94.185 L254.466666,89.7 L253.101666,78 L257.781666,66.495 L271.236666,48.165 L281.376666,43.095 L293.076666,49.725 L296.391666,79.56 L294.831666,81.315 L294.831666,88.14 L296.391666,97.695 L294.831666,99.645 L293.076666,99.645 L276.111666,102.96 L276.111666,107.835 L279.621666,111.15 L286.251666,111.15 L299.706666,109.59 L309.846666,111.15 L315.306666,106.08 L304.386666,99.645 L306.531666,61.23 L304.386666,41.535 L293.076666,29.445 L279.621666,28.08 L259.926666,38.22 L254.466666,32.955 L253.101666,32.955 L246.471666,26.715 L239.646666,31.395 L228.141666,28.08 L223.461666,31.395 L223.461666,36.27 L226.776666,41.535 L239.646666,49.725 L239.646666,54.405 L241.596666,79.56 L239.646666,94.185 L236.331666,97.695 L226.776666,99.645 L221.316666,104.325 L219.951666,109.59 L221.316666,109.59 L224.631666,112.905 L236.331666,111.15 L244.911666,112.905 L251.736666,111.15 L253.101666,112.905 L257.781666,111.15 L263.241666,112.905 L266.556666,109.59 L266.556666,107.835 L270.013,99.769 Z M378.969999,114.27 L382.284999,109.59 L390.864999,106.275 L402.369999,112.905 L403.929999,111.345 L405.684999,111.345 L413.874999,112.905 L417.384999,109.59 L422.259999,109.59 L425.574999,106.275 L425.574999,101.4 L424.014999,99.45 L415.434999,97.89 L407.244999,92.625 L403.929999,77.805 L405.684999,76.44 L402.369999,62.985 L403.929999,58.11 L402.369999,56.16 L403.929999,49.53 L402.369999,47.97 L403.929999,39.975 L402.369999,34.515 L403.929999,19.695 L402.369999,13.065 L403.929999,6.24 L400.419999,1.365 L392.424999,-5.68434189e-14 L390.864999,1.365 L375.654999,-5.68434189e-14 L372.144999,1.365 L370.779999,8.19 L372.144999,9.555 L387.549999,13.065 L389.109999,11.505 L392.424999,14.82 L393.789999,26.52 L397.104999,31.2 L392.424999,37.83 L389.109999,37.83 L380.919999,33.15 L372.144999,31.2 L360.639999,33.15 L347.769999,43.29 L342.504999,56.16 L339.189999,74.295 L342.504999,91.26 L347.769999,96.135 L347.769999,101.4 L352.644999,106.275 L359.274999,111.345 L370.779999,114.27 L372.144999,112.905 L378.969999,114.27 Z M369.219999,97.89 L362.589999,91.26 L355.959999,83.07 L352.644999,76.44 L352.644999,70.98 L353.814999,69.615 L352.644999,66.3 L352.644999,59.67 L360.639999,47.97 L369.219999,43.29 L378.969999,44.655 L384.234999,49.53 L387.549999,49.53 L390.864999,54.795 L389.109999,59.67 L392.424999,74.295 L387.549999,84.435 L387.549999,87.945 L384.234999,87.945 L378.969999,94.575 L369.219999,97.89 Z M489.433332,114.465 L507.568332,109.59 L519.268332,99.645 L522.583332,93.015 L521.023332,88.14 L515.758332,88.14 L499.378332,102.96 L497.428332,101.01 L490.798332,102.96 L477.733332,97.695 L467.788332,89.7 L464.278332,78 L465.838332,76.245 L479.293332,74.685 L489.433332,76.245 L489.433332,78 L492.748332,74.685 L500.938332,72.735 L505.618332,76.245 L514.393332,72.735 L522.583332,74.685 L524.338332,69.42 L522.583332,67.86 L524.338332,66.495 L524.338332,59.865 L519.268332,49.725 L505.618332,34.905 L479.293332,32.955 L474.418332,34.905 L469.153332,39.78 L460.963332,44.85 L456.283332,54.405 L450.823332,69.42 L452.968332,71.37 L456.283332,89.7 L462.523332,96.33 L462.523332,99.645 L474.418332,111.15 L483.973332,111.15 L489.433332,114.465 Z M489.433332,64.545 L494.113332,56.55 L494.113332,54.405 L489.433332,49.725 L482.608332,54.405 L481.243332,54.405 L479.293332,53.235 L479.293332,47.775 L481.243332,46.41 L479.293332,44.85 L481.243332,43.095 L490.798332,44.85 L496.063332,44.85 L500.938332,49.725 L500.938332,63.18 L489.433332,64.545 Z M475.978332,66.495 L472.663332,59.865 L481.243332,59.865 L481.243332,63.18 L475.978332,66.495 Z M583.906665,114.27 L588.586665,110.955 L600.871665,112.905 L608.866665,110.955 L613.741665,112.905 L625.246665,110.955 L630.511665,106.275 L630.511665,101.4 L628.561665,99.45 L612.181665,96.135 L610.426665,98.085 L605.551665,92.82 L605.551665,83.07 L602.236665,79.755 L605.551665,62.985 L613.741665,54.795 L615.691665,49.53 L628.561665,39.975 L634.021665,39.975 L637.336665,43.29 L638.701665,51.48 L643.966665,56.355 L645.331665,56.355 L650.206665,52.845 L652.156665,39.975 L643.966665,29.835 L637.336665,29.835 L634.021665,31.2 L623.881665,33.345 L620.566665,36.66 L615.691665,36.66 L610.426665,44.655 L603.601665,52.845 L600.871665,47.97 L602.236665,38.025 L595.411665,31.2 L587.416665,29.835 L585.271665,31.2 L570.451665,29.835 L567.136665,36.66 L572.401665,43.29 L588.586665,41.34 L594.046665,46.215 L594.046665,52.845 L592.096665,56.355 L594.046665,66.3 L592.096665,67.665 L594.046665,69.81 L594.046665,70.98 L592.096665,76.44 L594.046665,77.805 L592.096665,87.945 L587.416665,98.085 L583.906665,98.085 L581.956665,96.135 L569.086665,98.085 L563.821665,101.4 L563.821665,104.715 L567.136665,110.955 L583.906665,114.27 Z M767.689998,55.38 L769.249998,49.92 L765.934998,36.66 L762.424998,36.66 L762.424998,45.24 L767.689998,55.38 Z M726.934998,64.935 L726.934998,62.595 L724.399998,62.595 L724.399998,64.935 L726.934998,64.935 Z M761.059,30.097 L761.059998,28.47 L757.549998,15.015 L749.554998,10.14 L740.974998,6.825 L736.099998,8.775 L721.084998,3.51 L714.454998,6.825 L712.504998,5.46 L709.189998,5.46 L694.369998,2.145 L681.304998,5.46 L681.304998,10.14 L682.669998,12.09 L704.509998,10.14 L707.824998,20.28 L709.189998,21.645 L709.189998,25.155 L706.264998,46.605 L707.824998,52.065 L706.264998,53.235 L707.824998,55.38 L706.264998,56.745 L704.509998,66.885 L707.824998,79.755 L706.264998,81.705 L704.509998,98.67 L700.999998,101.4 L681.304998,101.4 L677.989998,104.715 L677.989998,108.225 L681.304998,111.54 L686.179998,111.54 L696.319998,113.49 L714.454998,109.98 L719.329998,111.54 L740.974998,109.98 L757.549998,96.525 L764.374998,85.215 L769.249998,60.06 L767.689998,58.11 L765.934998,58.11 L764.374998,60.06 L761.059998,64.935 L762.424998,66.885 L762.424998,70.2 L757.549998,75.075 L755.794998,83.07 L744.289998,96.525 L736.099998,101.4 L712.504998,99.84 L712.504998,96.525 L711.139998,81.705 L712.504998,71.76 L711.139998,36.66 L712.504998,35.1 L712.504998,28.47 L711.139998,26.91 L712.504998,15.015 L717.769998,10.14 L727.909998,12.09 L734.149998,10.14 L747.604998,13.455 L761.059,30.097 Z M861.968331,116.025 L873.278331,114.465 L880.103331,106.275 L878.738331,91.455 L866.648331,93.015 L861.968331,88.14 L863.333331,86.19 L863.333331,79.56 L861.968331,76.05 L863.333331,64.545 L861.968331,43.095 L855.143331,34.71 L850.268331,32.955 L836.813331,29.445 L835.448331,31.395 L820.238331,29.445 L803.663331,34.71 L798.398331,39.585 L797.033331,54.405 L801.908331,66.495 L805.223331,66.495 L806.978331,67.86 L805.223331,69.81 L803.663331,69.81 L790.403331,81.315 L790.403331,88.14 L792.353331,102.96 L801.908331,112.905 L806.978331,112.905 L815.363331,114.465 L816.728331,112.905 L818.678331,114.465 L830.183331,114.465 L850.268331,107.835 L851.828331,109.59 L861.968331,116.025 Z M816.728331,64.545 L808.538331,64.545 L818.678331,57.72 L818.678331,56.55 L820.238331,54.405 L815.363331,46.41 L815.363331,44.85 L825.308331,41.535 L843.638331,46.41 L848.513331,49.725 L848.513331,53.04 L850.268331,54.405 L840.128331,57.72 L835.448331,57.72 L832.133331,61.23 L816.728331,64.545 Z M828.818331,97.695 L810.488331,97.695 L806.978331,93.015 L808.538331,86.19 L806.978331,84.825 L815.363331,79.56 L825.308331,79.56 L826.868331,78 L828.818331,79.56 L841.688331,76.05 L845.003331,76.05 L843.638331,81.315 L846.953331,86.19 L840.128331,94.185 L828.818331,97.695 Z M950.786664,147.81 L958.976664,142.545 L960.926664,144.495 L964.241664,144.495 L966.971664,141.18 L982.376664,136.305 L990.566664,120.9 L988.811664,119.535 L985.691664,106.08 L982.376664,99.45 L973.796664,94.575 L958.976664,94.575 L955.661664,91.26 L940.646664,93.015 L937.331664,91.26 L925.826664,95.94 L919.196664,93.015 L914.321664,87.75 L920.951664,81.12 L927.191664,79.755 L940.646664,84.435 L952.346664,83.07 L957.611664,77.61 L960.926664,77.61 L969.116664,66.3 L969.116664,54.6 L965.801664,47.97 L970.481664,41.145 L972.431664,43.29 L973.796664,43.29 L979.061664,52.845 L982.376664,52.845 L987.251664,47.97 L988.811664,43.29 L979.061664,31.2 L970.481664,33.15 L964.241664,41.145 L954.101664,33.15 L934.016664,31.2 L915.686664,49.92 L915.686664,66.3 L919.196664,72.93 L917.636664,74.295 L912.371664,76.44 L911.006664,74.295 L904.181664,81.12 L904.181664,87.75 L905.741664,99.45 L900.866664,117.585 L902.231664,129.48 L907.496664,136.305 L937.331664,146.055 L945.521664,144.495 L950.786664,147.81 Z M943.961664,74.295 L930.506664,72.93 L929.336664,71.565 L930.506664,62.985 L927.191664,54.6 L929.336664,44.655 L935.966664,39.975 L943.961664,41.145 L948.836664,41.145 L958.976664,47.97 L960.926664,59.475 L960.926664,66.3 L952.346664,72.93 L943.961664,74.295 Z M940.646664,131.04 L920.951664,124.215 L920.951664,119.535 L919.196664,117.585 L917.636664,117.585 L917.636664,112.905 L932.651664,106.08 L935.966664,109.59 L942.596664,106.08 L948.836664,106.08 L952.346664,109.59 L960.926664,108.03 L970.481664,112.905 L972.431664,114.66 L972.431664,120.9 L965.801664,127.725 L955.661664,129.48 L954.101664,127.725 L940.646664,131.04 Z M1057.35,114.465 L1075.485,109.59 L1087.185,99.645 L1090.5,93.015 L1088.94,88.14 L1083.675,88.14 L1067.295,102.96 L1065.345,101.01 L1058.715,102.96 L1045.65,97.695 L1035.705,89.7 L1032.195,78 L1033.755,76.245 L1047.21,74.685 L1057.35,76.245 L1057.35,78 L1060.665,74.685 L1068.855,72.735 L1073.535,76.245 L1082.31,72.735 L1090.5,74.685 L1092.255,69.42 L1090.5,67.86 L1092.255,66.495 L1092.255,59.865 L1087.185,49.725 L1073.535,34.905 L1047.21,32.955 L1042.335,34.905 L1037.07,39.78 L1028.88,44.85 L1024.2,54.405 L1018.74,69.42 L1020.885,71.37 L1024.2,89.7 L1030.44,96.33 L1030.44,99.645 L1042.335,111.15 L1051.89,111.15 L1057.35,114.465 Z M1057.35,64.545 L1062.03,56.55 L1062.03,54.405 L1057.35,49.725 L1050.525,54.405 L1049.16,54.405 L1047.21,53.235 L1047.21,47.775 L1049.16,46.41 L1047.21,44.85 L1049.16,43.095 L1058.715,44.85 L1063.98,44.85 L1068.855,49.725 L1068.855,63.18 L1057.35,64.545 Z M1043.895,66.495 L1040.58,59.865 L1049.16,59.865 L1049.16,63.18 L1043.895,66.495 Z M1178.68,99.769 L1166.44833,101.01 L1161.76833,96.33 L1161.76833,94.185 L1163.13333,89.7 L1161.76833,78 L1166.44833,66.495 L1179.90333,48.165 L1190.04333,43.095 L1201.74333,49.725 L1205.05833,79.56 L1203.49833,81.315 L1203.49833,88.14 L1205.05833,97.695 L1203.49833,99.645 L1201.74333,99.645 L1184.77833,102.96 L1184.77833,107.835 L1188.28833,111.15 L1194.91833,111.15 L1208.37333,109.59 L1218.51333,111.15 L1223.97333,106.08 L1213.05333,99.645 L1215.19833,61.23 L1213.05333,41.535 L1201.74333,29.445 L1188.28833,28.08 L1168.59333,38.22 L1163.13333,32.955 L1161.76833,32.955 L1155.13833,26.715 L1148.31333,31.395 L1136.80833,28.08 L1132.12833,31.395 L1132.12833,36.27 L1135.44333,41.535 L1148.31333,49.725 L1148.31333,54.405 L1150.26333,79.56 L1148.31333,94.185 L1144.99833,97.695 L1135.44333,99.645 L1129.98333,104.325 L1128.61833,109.59 L1129.98333,109.59 L1133.29833,112.905 L1144.99833,111.15 L1153.57833,112.905 L1160.40333,111.15 L1161.76833,112.905 L1166.44833,111.15 L1171.90833,112.905 L1175.22333,109.59 L1175.22333,107.835 L1178.68,99.769 Z" id="Shape"></path>
  </g>
  <g id="Group" transform="translate(0.568000, 0.288000)" fill="#000000" fill-rule="nonzero">
      <path d="M68.928,110.976 L68.928,109.44 L71.808,106.176 L76.992,78.336 L80.256,68.352 L78.528,67.008 L81.792,48.96 L86.976,33.792 L85.056,22.464 L88.512,12.48 L93.12,12.48 L93.12,4.608 L90.24,4.608 L83.712,7.872 L75.264,6.336 L75.264,9.216 L80.256,15.744 L76.992,19.2 L75.264,19.2 L75.264,37.248 L71.808,40.512 L71.808,45.696 L73.728,47.232 L70.464,50.496 L67.008,58.368 L65.664,57.024 L63.744,51.648 L65.664,50.496 L55.872,28.992 L57.216,27.84 L55.872,25.728 L53.76,27.84 L52.608,27.84 L53.76,28.992 L55.872,35.712 L49.152,42.432 L45.888,42.432 L42.624,30.528 L41.088,30.528 L41.088,33.792 L34.368,42.432 L34.368,45.696 L31.104,58.368 L29.376,58.368 L27.84,57.024 L26.496,45.696 L21.12,37.248 L23.232,35.712 L23.232,32.448 L21.12,30.528 L17.856,12.48 L27.84,9.216 L27.84,7.872 L26.496,6.336 L14.592,3.072 L13.248,4.608 L3.264,3.072 L2.84217094e-14,4.608 L2.84217094e-14,9.216 L3.264,12.48 L9.984,12.48 L13.248,24.384 L16.512,38.976 L14.592,57.024 L17.856,60.48 L19.968,81.6 L23.232,84.864 L21.12,91.584 L23.232,99.648 L21.12,100.992 L26.496,107.52 L32.64,109.44 L41.088,104.256 L42.624,89.664 L41.088,84.864 L44.352,53.76 L47.808,48.96 L49.152,50.496 L52.608,57.024 L50.496,67.008 L53.76,71.616 L52.608,73.152 L52.608,74.88 L55.872,81.6 L53.76,100.992 L59.136,109.44 L68.928,110.976 Z M45.888,25.728 L47.808,24.384 L53.76,14.592 L62.4,11.136 L62.4,7.872 L60.48,6.336 L49.152,4.608 L45.888,6.336 L42.624,24.384 L44.352,25.728 L45.888,25.728 Z M53.376,14.592 L50.496,14.592 L50.496,12.096 L53.376,12.096 L53.376,14.592 Z M50.112,73.152 L50.112,70.656 L47.808,70.656 L47.808,73.152 L50.112,73.152 Z M198.12313,113.088 L204.84313,109.824 L207.53113,101.376 L206.18713,99.84 L202.92313,94.656 L181.61113,94.656 L178.15513,91.968 L173.54713,65.28 L174.89113,24.576 L173.54713,16.128 L174.89113,14.784 L180.07513,14.784 L181.61113,16.128 L183.33913,14.784 L186.41113,14.784 L191.59513,16.128 L202.92313,9.408 L202.92313,3.456 L201.38713,1.536 L186.41113,0.192 L170.28313,1.536 L164.90713,0.192 L158.95513,3.456 L157.03513,1.536 L152.23513,1.536 L145.70713,0.192 L131.11513,4.992 L129.00313,9.408 L134.37913,14.784 L147.05113,18.048 L157.03513,16.128 L160.29913,18.048 L160.29913,24.576 L158.95513,34.176 L160.29913,39.36 L158.95513,53.952 L160.29913,55.296 L157.03513,94.656 L155.49913,93.12 L153.77113,94.656 L148.97113,94.656 L132.26713,97.92 L127.85113,103.104 L129.00313,107.904 L135.72313,111.168 L145.70713,113.088 L150.50713,111.168 L163.75513,113.088 L170.28313,111.168 L180.07513,113.088 L196.39513,111.168 L198.12313,113.088 Z M329.430261,38.784 L331.350261,37.44 L329.430261,28.8 L331.350261,27.456 L326.166261,4.8 L324.822261,4.8 L316.758261,1.536 L308.118261,6.144 L310.038261,7.68 L311.574261,6.144 L321.558261,17.664 L322.710261,28.8 L329.430261,38.784 Z M310.038261,109.248 L313.302261,105.984 L320.022261,105.984 L326.166261,107.904 L328.086261,105.984 L331.350261,86.592 L329.430261,83.328 L332.694261,70.08 L329.430261,66.816 L326.166261,66.816 L324.822261,68.544 L318.102261,87.936 L308.118261,97.92 L296.790261,96 L293.526261,97.92 L278.934261,96 L275.670261,92.736 L275.670261,84.672 L272.214261,80.064 L274.134261,56.832 L277.398261,53.568 L292.182261,53.568 L295.446261,56.832 L298.902261,62.016 L296.790261,66.816 L300.054261,73.344 L301.590261,73.344 L306.774261,68.544 L304.854261,55.296 L308.118261,45.504 L306.774261,32.064 L300.054261,30.912 L298.902261,32.064 L296.790261,38.784 L286.806261,48.768 L280.278261,47.424 L275.670261,42.048 L274.134261,34.176 L275.670261,32.064 L274.134261,12.864 L277.398261,9.408 L301.590261,6.144 L301.590261,2.88 L300.054261,1.536 L288.918261,2.88 L283.542261,1.536 L277.398261,4.8 L275.670261,2.88 L246.294261,1.536 L243.030261,9.408 L244.374261,10.944 L256.278261,12.864 L264.150261,10.944 L267.414261,14.208 L268.950261,65.28 L267.414261,77.952 L268.950261,81.408 L267.414261,87.936 L260.886261,94.656 L243.030261,97.92 L241.110261,104.64 L246.294261,109.248 L253.014261,107.904 L257.622261,109.248 L258.966261,107.904 L268.950261,109.248 L283.542261,107.904 L292.182261,109.248 L301.590261,107.904 L310.038261,109.248 Z M409.665391,112.512 L411.009391,111.168 L414.273391,111.168 L432.321391,107.904 L438.849391,99.456 L445.377391,84.672 L442.113391,63.744 L427.521391,48.96 L406.401391,44.16 L397.953391,45.696 L396.417391,44.16 L396.417391,42.432 L391.425391,42.432 L385.089391,37.632 L381.825391,24.576 L385.089391,19.776 L383.361391,11.712 L385.089391,9.984 L386.625391,9.984 L391.425391,14.592 L396.417391,14.592 L399.873391,8.448 L409.665391,8.448 L422.337391,14.592 L430.785391,23.04 L432.321391,27.84 L438.849391,34.368 L440.385391,33.024 L437.121391,13.248 L440.385391,9.984 L440.385391,5.184 L438.849391,3.264 L435.585391,3.264 L433.665391,5.184 L433.665391,11.712 L430.785391,14.592 L425.601391,9.984 L425.601391,8.448 L401.217391,-7.10542736e-15 L391.425391,5.184 L383.361391,6.528 L383.361391,9.984 L376.641391,14.592 L373.377391,23.04 L375.297391,34.368 L383.361391,44.16 L391.425391,48.96 L391.425391,52.224 L394.689391,52.224 L394.689391,50.88 L397.953391,47.424 L401.217391,54.144 L419.073391,55.488 L433.665391,62.208 L435.585391,67.008 L432.321391,83.328 L427.521391,88.128 L422.337391,94.656 L409.665391,97.92 L397.953391,94.656 L386.625391,83.328 L385.089391,73.536 L381.825391,70.272 L375.297391,68.736 L373.377391,70.272 L373.377391,72 L375.297391,86.592 L371.841391,102.72 L373.377391,107.904 L381.825391,109.248 L386.625391,104.64 L391.425391,104.64 L397.953391,109.248 L404.481391,109.248 L409.665391,112.512 Z" id="Shape"></path>
      <path d="M534.452,114.682 L547.007,111.307 L555.107,104.422 L557.402,99.832 L556.322,96.457 L552.677,96.457 L541.337,106.717 L539.987,105.367 L535.397,106.717 L526.352,103.072 L519.467,97.537 L517.037,89.437 L518.117,88.222 L527.432,87.142 L534.452,88.222 L534.452,89.437 L536.747,87.142 L542.417,85.792 L545.657,88.222 L551.732,85.792 L557.402,87.142 L558.617,83.497 L557.402,82.417 L558.617,81.472 L558.617,76.882 L555.107,69.862 L545.657,59.602 L527.432,58.252 L524.057,59.602 L520.412,62.977 L514.742,66.487 L511.502,73.102 L507.722,83.497 L509.207,84.847 L511.502,97.537 L515.822,102.127 L515.822,104.422 L524.057,112.387 L530.672,112.387 L534.452,114.682 Z M534.452,80.122 L537.692,74.587 L537.692,73.102 L534.452,69.862 L529.727,73.102 L528.782,73.102 L527.432,72.292 L527.432,68.512 L528.782,67.567 L527.432,66.487 L528.782,65.272 L535.397,66.487 L539.042,66.487 L542.417,69.862 L542.417,79.177 L534.452,80.122 Z M525.137,81.472 L522.842,76.882 L528.782,76.882 L528.782,79.177 L525.137,81.472 Z M606.265,104.508 L597.797,105.367 L594.557,102.127 L594.557,100.642 L595.502,97.537 L594.557,89.437 L597.797,81.472 L607.112,68.782 L614.132,65.272 L622.232,69.862 L624.527,90.517 L623.447,91.732 L623.447,96.457 L624.527,103.072 L623.447,104.422 L622.232,104.422 L610.487,106.717 L610.487,110.092 L612.917,112.387 L617.507,112.387 L626.822,111.307 L633.842,112.387 L637.622,108.877 L630.062,104.422 L631.547,77.827 L630.062,64.192 L622.232,55.822 L612.917,54.877 L599.282,61.897 L595.502,58.252 L594.557,58.252 L589.967,53.932 L585.242,57.172 L577.277,54.877 L574.037,57.172 L574.037,60.547 L576.332,64.192 L585.242,69.862 L585.242,73.102 L586.592,90.517 L585.242,100.642 L582.947,103.072 L576.332,104.422 L572.552,107.662 L571.607,111.307 L572.552,111.307 L574.847,113.602 L582.947,112.387 L588.887,113.602 L593.612,112.387 L594.557,113.602 L597.797,112.387 L601.577,113.602 L603.872,111.307 L603.872,110.092 L606.265,104.508 Z" id="Shape"></path>
      <path d="M712.612,114.547 L714.907,111.307 L720.847,109.012 L728.812,113.602 L729.892,112.522 L731.107,112.522 L736.777,113.602 L739.207,111.307 L742.582,111.307 L744.877,109.012 L744.877,105.637 L743.797,104.287 L737.857,103.207 L732.187,99.562 L729.892,89.302 L731.107,88.357 L728.812,79.042 L729.892,75.667 L728.812,74.317 L729.892,69.727 L728.812,68.647 L729.892,63.112 L728.812,59.332 L729.892,49.072 L728.812,44.482 L729.892,39.757 L727.462,36.382 L721.927,35.437 L720.847,36.382 L710.317,35.437 L707.887,36.382 L706.942,41.107 L707.887,42.052 L718.552,44.482 L719.632,43.402 L721.927,45.697 L722.872,53.797 L725.167,57.037 L721.927,61.627 L719.632,61.627 L713.962,58.387 L707.887,57.037 L699.922,58.387 L691.012,65.407 L687.367,74.317 L685.072,86.872 L687.367,98.617 L691.012,101.992 L691.012,105.637 L694.387,109.012 L698.977,112.522 L706.942,114.547 L707.887,113.602 L712.612,114.547 Z M705.862,103.207 L701.272,98.617 L696.682,92.947 L694.387,88.357 L694.387,84.577 L695.197,83.632 L694.387,81.337 L694.387,76.747 L699.922,68.647 L705.862,65.407 L712.612,66.352 L716.257,69.727 L718.552,69.727 L720.847,73.372 L719.632,76.747 L721.927,86.872 L718.552,93.892 L718.552,96.322 L716.257,96.322 L712.612,100.912 L705.862,103.207 Z M776.902,114.682 L789.457,111.307 L797.557,104.422 L799.852,99.832 L798.772,96.457 L795.127,96.457 L783.787,106.717 L782.437,105.367 L777.847,106.717 L768.802,103.072 L761.917,97.537 L759.487,89.437 L760.567,88.222 L769.882,87.142 L776.902,88.222 L776.902,89.437 L779.197,87.142 L784.867,85.792 L788.107,88.222 L794.182,85.792 L799.852,87.142 L801.067,83.497 L799.852,82.417 L801.067,81.472 L801.067,76.882 L797.557,69.862 L788.107,59.602 L769.882,58.252 L766.507,59.602 L762.862,62.977 L757.192,66.487 L753.952,73.102 L750.172,83.497 L751.657,84.847 L753.952,97.537 L758.272,102.127 L758.272,104.422 L766.507,112.387 L773.122,112.387 L776.902,114.682 Z M776.902,80.122 L780.142,74.587 L780.142,73.102 L776.902,69.862 L772.177,73.102 L771.232,73.102 L769.882,72.292 L769.882,68.512 L771.232,67.567 L769.882,66.487 L771.232,65.272 L777.847,66.487 L781.492,66.487 L784.867,69.862 L784.867,79.177 L776.902,80.122 Z M767.587,81.472 L765.292,76.882 L771.232,76.882 L771.232,79.177 L767.587,81.472 Z" id="Shape"></path>
      <path d="M908.582,112.792 L913.307,106.852 L913.307,102.667 L911.957,100.237 L913.307,90.922 L911.957,76.072 L907.367,76.072 L903.992,80.662 L903.992,83.902 L904.937,87.682 L903.992,90.922 L904.937,96.727 L899.402,102.667 L879.692,103.612 L876.452,100.237 L876.452,96.727 L877.397,95.647 L876.452,88.627 L878.747,77.017 L875.102,58.657 L876.452,57.847 L875.102,47.047 L876.452,42.727 L881.042,42.727 L889.007,43.807 L894.812,41.512 L894.812,39.082 L893.732,38.137 L886.712,36.787 L875.102,38.137 L872.672,35.707 L868.487,35.707 L864.842,36.787 L856.742,35.707 L848.912,38.137 L847.427,36.787 L847.427,42.727 L848.912,41.512 L869.432,42.727 L872.672,46.102 L872.672,48.397 L869.432,50.827 L869.432,55.417 L870.782,63.382 L869.432,64.462 L867.137,103.612 L864.842,103.612 L847.427,104.557 L847.427,111.577 L857.822,112.792 L868.487,111.577 L871.862,112.792 L879.692,111.577 L885.632,112.792 L896.027,111.577 L897.107,112.792 L904.937,111.577 L908.582,112.792 Z M946.007,49.342 L950.192,47.047 L952.622,43.267 L951.542,37.732 L944.522,34.357 L938.987,37.732 L936.692,40.972 L937.502,47.047 L946.007,49.342 Z M938.987,114.817 L950.192,112.387 L953.837,113.467 L954.917,112.387 L956.132,113.467 L958.562,113.467 L959.507,112.387 L967.472,113.467 L972.197,112.387 L974.492,109.012 L973.547,103.072 L971.252,100.777 L966.527,100.777 L953.837,102.127 L951.542,99.832 L951.542,96.052 L950.192,87.142 L952.622,82.552 L951.542,60.682 L947.897,55.957 L944.522,55.957 L943.577,57.307 L923.867,54.877 L924.947,64.192 L929.672,64.192 L931.967,62.977 L932.912,64.192 L937.502,66.217 L941.282,62.977 L943.577,65.272 L942.227,74.587 L943.577,83.497 L941.282,95.242 L939.932,95.242 L941.282,96.052 L942.227,99.832 L939.932,102.127 L935.207,102.127 L934.262,100.777 L919.277,103.072 L917.927,107.797 L921.572,112.387 L924.947,112.387 L930.887,113.467 L931.967,112.387 L932.912,113.467 L938.987,114.817 Z M1009.352,114.682 L1021.907,111.307 L1030.007,104.422 L1032.302,99.832 L1031.222,96.457 L1027.577,96.457 L1016.237,106.717 L1014.887,105.367 L1010.297,106.717 L1001.252,103.072 L994.367,97.537 L991.937,89.437 L993.017,88.222 L1002.332,87.142 L1009.352,88.222 L1009.352,89.437 L1011.647,87.142 L1017.317,85.792 L1020.557,88.222 L1026.632,85.792 L1032.302,87.142 L1033.517,83.497 L1032.302,82.417 L1033.517,81.472 L1033.517,76.882 L1030.007,69.862 L1020.557,59.602 L1002.332,58.252 L998.957,59.602 L995.312,62.977 L989.642,66.487 L986.402,73.102 L982.622,83.497 L984.107,84.847 L986.402,97.537 L990.722,102.127 L990.722,104.422 L998.957,112.387 L1005.572,112.387 L1009.352,114.682 Z M1009.352,80.122 L1012.592,74.587 L1012.592,73.102 L1009.352,69.862 L1004.627,73.102 L1003.682,73.102 L1002.332,72.292 L1002.332,68.512 L1003.682,67.567 L1002.332,66.487 L1003.682,65.272 L1010.297,66.487 L1013.942,66.487 L1017.317,69.862 L1017.317,79.177 L1009.352,80.122 Z M1000.037,81.472 L997.742,76.882 L1003.682,76.882 L1003.682,79.177 L1000.037,81.472 Z M1105.772,52.717 L1106.717,51.367 L1109.147,45.697 L1102.532,38.677 L1095.512,36.382 L1096.457,39.757 L1097.807,38.677 L1100.237,38.677 L1103.477,43.402 L1100.237,50.422 L1105.772,52.717 Z M1072.562,113.602 L1074.857,111.307 L1075.802,112.522 L1079.177,112.522 L1080.527,111.307 L1081.472,112.522 L1085.117,112.522 L1097.807,111.307 L1100.237,109.012 L1100.237,105.637 L1096.457,101.992 L1093.217,101.992 L1091.867,103.207 L1079.177,100.912 L1079.177,89.302 L1076.882,73.372 L1078.097,69.727 L1076.882,64.057 L1079.177,61.627 L1081.472,61.627 L1085.117,63.112 L1088.492,61.627 L1091.867,63.112 L1095.512,60.817 L1093.217,58.387 L1089.842,58.387 L1081.472,60.817 L1074.857,53.797 L1078.097,44.482 L1088.492,37.867 L1087.412,36.382 L1085.117,36.382 L1079.177,38.677 L1074.857,45.697 L1072.562,51.367 L1073.507,52.717 L1073.507,57.037 L1071.212,59.332 L1068.917,59.332 L1066.622,57.037 L1063.247,57.037 L1051.637,59.332 L1052.852,60.817 L1052.852,61.627 L1060.952,64.057 L1066.622,61.627 L1072.562,65.407 L1072.562,68.647 L1073.507,74.317 L1071.212,90.652 L1072.562,91.597 L1071.212,100.912 L1068.917,103.207 L1064.327,103.207 L1060.952,101.992 L1052.852,104.287 L1050.557,107.932 L1051.637,111.307 L1060.952,113.602 L1068.917,111.307 L1071.212,113.602 L1072.562,113.602 Z M1075.802,63.112 L1073.507,63.112 L1074.857,59.332 L1075.802,60.817 L1075.802,63.112 Z M1144.412,114.547 L1146.707,111.307 L1152.647,109.012 L1160.612,113.602 L1161.692,112.522 L1162.907,112.522 L1168.577,113.602 L1171.007,111.307 L1174.382,111.307 L1176.677,109.012 L1176.677,105.637 L1175.597,104.287 L1169.657,103.207 L1163.987,99.562 L1161.692,89.302 L1162.907,88.357 L1160.612,79.042 L1161.692,75.667 L1160.612,74.317 L1161.692,69.727 L1160.612,68.647 L1161.692,63.112 L1160.612,59.332 L1161.692,49.072 L1160.612,44.482 L1161.692,39.757 L1159.262,36.382 L1153.727,35.437 L1152.647,36.382 L1142.117,35.437 L1139.687,36.382 L1138.742,41.107 L1139.687,42.052 L1150.352,44.482 L1151.432,43.402 L1153.727,45.697 L1154.672,53.797 L1156.967,57.037 L1153.727,61.627 L1151.432,61.627 L1145.762,58.387 L1139.687,57.037 L1131.722,58.387 L1122.812,65.407 L1119.167,74.317 L1116.872,86.872 L1119.167,98.617 L1122.812,101.992 L1122.812,105.637 L1126.187,109.012 L1130.777,112.522 L1138.742,114.547 L1139.687,113.602 L1144.412,114.547 Z M1137.662,103.207 L1133.072,98.617 L1128.482,92.947 L1126.187,88.357 L1126.187,84.577 L1126.997,83.632 L1126.187,81.337 L1126.187,76.747 L1131.722,68.647 L1137.662,65.407 L1144.412,66.352 L1148.057,69.727 L1150.352,69.727 L1152.647,73.372 L1151.432,76.747 L1153.727,86.872 L1150.352,93.892 L1150.352,96.322 L1148.057,96.322 L1144.412,100.912 L1137.662,103.207 Z M1208.702,114.682 L1221.257,111.307 L1229.357,104.422 L1231.652,99.832 L1230.572,96.457 L1226.927,96.457 L1215.587,106.717 L1214.237,105.367 L1209.647,106.717 L1200.602,103.072 L1193.717,97.537 L1191.287,89.437 L1192.367,88.222 L1201.682,87.142 L1208.702,88.222 L1208.702,89.437 L1210.997,87.142 L1216.667,85.792 L1219.907,88.222 L1225.982,85.792 L1231.652,87.142 L1232.867,83.497 L1231.652,82.417 L1232.867,81.472 L1232.867,76.882 L1229.357,69.862 L1219.907,59.602 L1201.682,58.252 L1198.307,59.602 L1194.662,62.977 L1188.992,66.487 L1185.752,73.102 L1181.972,83.497 L1183.457,84.847 L1185.752,97.537 L1190.072,102.127 L1190.072,104.422 L1198.307,112.387 L1204.922,112.387 L1208.702,114.682 Z M1208.702,80.122 L1211.942,74.587 L1211.942,73.102 L1208.702,69.862 L1203.977,73.102 L1203.032,73.102 L1201.682,72.292 L1201.682,68.512 L1203.032,67.567 L1201.682,66.487 L1203.032,65.272 L1209.647,66.487 L1213.292,66.487 L1216.667,69.862 L1216.667,79.177 L1208.702,80.122 Z M1199.387,81.472 L1197.092,76.882 L1203.032,76.882 L1203.032,79.177 L1199.387,81.472 Z" id="Shape"></path>
  </g>
</svg>
