<?xml version="1.0" standalone="no"?>
<!DOCTYPE svg PUBLIC "-//W3C//DTD SVG 20010904//EN"
 "http://www.w3.org/TR/2001/REC-SVG-20010904/DTD/svg10.dtd">
<svg version="1.0" xmlns="http://www.w3.org/2000/svg"
 width="620.000000pt" height="620.000000pt" viewBox="0 0 620.000000 620.000000"
 preserveAspectRatio="xMidYMid meet">
<metadata>
Created by potrace 1.14, written by Peter Selinger 2001-2017
</metadata>
<g transform="translate(0.000000,620.000000) scale(0.100000,-0.100000)"
fill="#000000" stroke="none">
<path d="M513 6155 l-93 -45 0 -132 0 -133 94 -94 93 -93 194 -2 194 -1 38
-145 c22 -80 41 -152 44 -160 8 -19 11 -30 16 -55 3 -11 11 -40 18 -65 7 -25
13 -48 15 -52 1 -5 2 -9 3 -10 2 -2 4 -14 7 -27 5 -28 33 -129 41 -151 3 -8 7
-28 9 -44 1 -16 7 -40 13 -55 6 -14 17 -60 25 -101 8 -41 24 -113 35 -160 10
-47 28 -128 39 -180 11 -52 23 -102 26 -110 3 -8 7 -28 10 -45 3 -16 11 -52
17 -80 12 -51 18 -162 9 -180 -6 -13 -6 -15 -14 -111 -4 -45 -9 -93 -11 -105
-2 -13 -6 -53 -10 -89 -4 -36 -8 -81 -11 -100 -2 -19 -6 -62 -10 -95 -3 -33
-7 -73 -8 -90 -2 -16 -7 -61 -10 -100 -4 -38 -9 -81 -11 -95 -2 -14 -6 -54
-10 -90 l-6 -65 82 -85 c45 -47 88 -94 95 -105 7 -11 16 -54 19 -95 4 -41 8
-91 10 -110 7 -66 14 -135 19 -180 3 -25 8 -74 11 -110 3 -36 7 -78 10 -95 2
-16 7 -61 10 -100 9 -111 14 -156 21 -215 3 -30 7 -73 9 -95 2 -22 7 -69 11
-105 3 -36 7 -75 8 -88 1 -14 38 -59 95 -116 l94 -94 -16 -59 c-9 -32 -36
-118 -60 -192 l-43 -134 23 -91 c13 -50 25 -100 27 -111 3 -11 11 -41 19 -67
8 -27 13 -48 11 -48 -2 0 1 -12 7 -28 12 -29 17 -50 25 -97 5 -28 1 -33 -50
-63 -31 -18 -56 -36 -56 -40 0 -4 10 -19 23 -34 12 -15 32 -40 44 -55 12 -15
32 -40 45 -55 13 -15 61 -74 108 -131 80 -98 88 -105 140 -119 30 -9 109 -33
175 -53 110 -35 122 -36 145 -23 62 36 75 43 84 51 6 4 91 57 189 117 98 59
181 110 183 113 3 2 7 26 10 53 3 27 7 65 9 84 3 19 7 60 10 90 11 117 15 151
30 288 7 63 13 119 20 192 4 36 9 80 11 99 3 30 -19 114 -63 239 -8 24 -16 60
-16 80 -1 40 12 208 18 232 2 8 7 47 10 86 3 39 8 81 10 94 2 13 7 53 10 89 3
36 8 80 10 96 1 17 6 59 9 95 4 36 9 83 12 104 3 22 7 67 9 100 3 34 5 61 5
61 2 0 10 61 15 120 3 33 7 74 9 91 3 17 7 64 11 105 3 41 8 85 10 99 5 34 21
183 30 280 11 121 13 126 113 265 l97 136 41 -45 c22 -25 56 -76 76 -113 19
-37 63 -121 97 -186 l62 -117 -21 -107 c-12 -58 -24 -118 -27 -132 -3 -14 -7
-35 -8 -46 -2 -11 -4 -20 -5 -20 -1 0 -3 -7 -5 -15 -22 -99 -40 -189 -49 -237
-4 -19 32 -81 71 -121 7 -7 13 -17 13 -21 0 -4 8 -16 18 -27 9 -11 22 -27 27
-36 6 -9 20 -29 32 -45 l21 -28 -31 -45 c-53 -77 -48 -117 35 -290 38 -80 81
-167 94 -195 24 -52 25 -67 8 -200 -9 -65 -11 -86 -18 -165 -4 -36 -8 -81 -11
-100 -2 -19 -6 -60 -10 -90 -3 -30 -8 -75 -11 -100 -2 -25 -7 -63 -9 -85 -2
-22 -7 -65 -10 -95 -7 -72 -15 -137 -21 -180 -3 -19 -7 -61 -9 -93 l-4 -58
102 -160 c56 -87 107 -167 112 -176 35 -61 98 -147 108 -149 56 -9 107 -17
132 -20 17 -2 41 -6 55 -9 14 -3 43 -7 65 -10 22 -3 96 -14 164 -26 68 -11
125 -18 127 -17 1 2 4 23 5 46 2 31 11 52 32 75 15 18 45 52 65 76 20 24 44
51 53 60 14 14 26 59 44 171 8 49 14 81 20 110 3 14 7 39 10 55 3 17 8 44 12
60 4 17 7 32 8 35 1 3 4 27 9 53 4 27 9 59 12 70 2 12 7 37 10 56 3 18 8 43
10 55 2 11 6 32 9 46 3 14 7 36 10 50 3 14 8 41 11 60 29 157 38 204 49 260 5
23 17 93 30 165 2 17 7 41 10 55 3 14 8 41 11 60 3 19 7 43 10 53 3 10 7 30 9
45 4 24 14 79 29 149 2 12 45 146 95 299 l91 278 -22 21 c-13 12 -35 29 -50
39 -19 12 -25 24 -22 39 4 21 7 38 21 117 3 19 7 44 10 55 2 11 6 36 9 55 3
19 7 42 9 50 2 8 7 31 10 50 3 19 10 58 15 85 14 68 30 157 36 195 2 18 14 84
20 114 13 68 27 144 29 161 14 103 23 133 144 485 154 450 180 531 176 542 -2
7 -6 27 -9 43 -2 17 -9 59 -15 95 -6 36 -13 79 -16 95 -10 61 -21 123 -30 173
-3 15 -8 47 -11 71 -3 25 -7 47 -9 50 -2 3 -6 29 -10 57 -7 56 -12 38 100 359
37 105 72 206 78 225 l12 35 120 2 c66 1 126 2 133 2 9 1 12 53 12 226 l0 225
-82 0 c-81 0 -84 -1 -218 -66 -74 -37 -138 -72 -142 -78 -4 -6 -8 -7 -8 -3 0
4 -19 -3 -42 -16 -47 -25 -48 -25 -163 -3 -77 14 -115 21 -172 31 -16 2 -53 9
-83 15 -30 6 -69 13 -86 16 l-30 5 1 -84 c1 -80 3 -86 35 -128 19 -24 38 -45
42 -47 5 -2 8 -10 8 -17 0 -7 3 -15 8 -17 4 -1 49 -58 100 -126 l93 -122 -48
-51 c-142 -151 -139 -149 -191 -149 l-47 0 0 -517 0 -517 -70 -67 c-38 -36
-83 -78 -99 -93 l-29 -26 -1 -148 -2 -147 31 -27 c16 -14 41 -35 55 -46 l25
-20 -100 -104 c-66 -68 -105 -117 -114 -143 -8 -22 -29 -73 -48 -113 -18 -40
-34 -78 -36 -85 -1 -6 -5 -14 -8 -17 -3 -3 -20 -41 -38 -85 -19 -44 -35 -83
-38 -87 -4 -7 -14 2 -60 53 -13 14 -43 81 -67 149 -24 69 -49 138 -55 153 -9
23 -8 29 7 35 20 9 92 53 92 57 0 8 -46 112 -125 280 -13 28 -35 77 -50 110
-15 33 -37 83 -50 110 -89 191 -105 227 -105 230 0 2 -17 41 -39 87 -86 184
-111 239 -111 242 0 3 -18 42 -40 88 l-40 83 39 37 38 36 -36 56 c-20 31 -39
56 -43 56 -3 0 -32 -27 -64 -59 -48 -50 -62 -59 -86 -56 -35 4 -35 -4 0 -35
15 -14 34 -45 42 -70 7 -25 16 -49 19 -55 3 -5 6 -15 7 -20 1 -6 20 -68 43
-139 22 -71 39 -132 36 -135 -3 -3 -89 -90 -192 -193 -115 -115 -195 -188
-207 -189 -22 -1 -143 -1 -163 0 -7 1 -13 10 -13 22 0 11 -4 28 -10 38 -5 10
-11 29 -14 44 -2 14 -19 76 -36 138 -18 63 -33 118 -35 124 -8 39 -84 307 -87
311 -4 3 -49 6 -70 5 -16 -1 -18 -13 -18 -97 0 -91 -2 -98 -27 -128 -16 -18
-39 -47 -53 -65 -43 -57 -250 -324 -278 -358 -25 -30 -27 -40 -28 -135 -1 -57
-4 -112 -7 -123 -3 -11 -22 -82 -42 -158 -20 -76 -38 -147 -40 -158 -2 -10 -6
-23 -9 -28 -3 -5 -8 -25 -12 -46 -3 -20 -12 -54 -19 -76 -8 -21 -12 -39 -10
-39 3 0 0 -11 -5 -25 -5 -14 -12 -36 -14 -48 -26 -121 -23 -117 -76 -117 -30
0 -54 6 -64 15 -8 8 -17 15 -20 15 -19 0 -57 57 -62 93 -2 23 -7 58 -9 77 -3
19 -7 58 -10 85 -3 28 -7 66 -10 85 -3 19 -8 60 -11 90 -3 30 -7 66 -9 80 -2
14 -7 57 -10 95 -9 85 -13 96 -62 171 -21 32 -42 67 -48 77 -5 10 -37 59 -69
110 -124 191 -136 211 -136 221 0 6 19 22 42 36 71 43 74 49 73 150 l-1 91
-62 57 c-49 45 -63 65 -67 92 -2 19 -6 46 -10 60 -3 14 -7 39 -10 55 -2 17 -7
42 -10 58 -13 71 -28 154 -30 172 -2 11 -6 32 -9 48 -3 15 -10 53 -16 85 -5
31 -12 68 -15 82 -3 14 -8 39 -10 55 -5 26 -10 56 -30 168 -3 15 -7 39 -10 55
-22 124 -27 154 -22 158 3 3 131 47 284 97 l278 92 2 40 c2 34 -3 47 -35 83
-21 24 -45 45 -53 46 -8 2 -21 5 -29 8 -20 8 -77 23 -190 54 -52 14 -120 32
-150 40 -105 29 -155 43 -228 62 l-73 20 -34 -37 c-19 -20 -35 -39 -35 -44 0
-4 -12 -5 -27 -3 -38 6 -112 18 -143 22 -40 5 -89 12 -118 18 -15 3 -47 8 -72
11 -25 3 -56 7 -70 10 -14 3 -43 8 -65 10 -22 3 -51 7 -65 9 -16 3 -58 -11
-117 -39z"/>
</g>
</svg>
